<svg width="125" height="125" viewBox="0 0 125 125" fill="none" xmlns="http://www.w3.org/2000/svg">
<rect width="124.072" height="124.072" transform="translate(0.22998 6.10352e-05)" fill="white"/>
<path fill-rule="evenodd" clip-rule="evenodd" d="M93.0212 10.2943C92.4472 10.9284 92.4239 12.1635 92.2641 50.3301L92.0996 89.7113L91.2528 92.1989C90.1225 95.5209 89.0136 97.5856 87.1426 99.8507L85.5878 101.733L85.3692 95.2438C85.2489 91.675 85.1089 75.8165 85.0582 60.003C84.9578 28.6993 85.0483 30.1829 83.1714 29.0743C82.3486 28.5883 81.2863 28.4835 75.9354 28.36C67.8113 28.1725 65.7954 28.3809 64.4946 29.5429L63.5098 30.4229L63.3544 65.7672C63.2054 99.5966 63.1743 101.129 62.6283 101.529C62.1388 101.886 60.3741 102.133 56.3886 102.4L55.4868 102.461L55.3817 80.6935C55.3242 68.7217 55.1899 57.1907 55.0835 55.0691C54.9084 51.5745 54.8217 51.1429 54.1612 50.4825L53.432 49.7533H44.7159H36.0001L34.9845 50.6606L33.9689 51.5677L33.8134 77.7798L33.6579 103.992L32.7251 104.218C30.9996 104.637 26.2914 105.459 26.1959 105.359C26.1437 105.304 26.0445 98.0872 25.9748 89.3219C25.8532 73.9414 25.8271 73.3546 25.2223 72.5303C23.9032 70.7308 23.1693 70.5883 15.2182 70.588C7.39635 70.5874 6.74552 70.7028 5.7178 72.2709C5.25416 72.9787 5.20628 75.0866 5.21529 94.4425C5.22587 117.37 5.14471 116.237 6.85248 117.33C7.70295 117.874 7.83045 117.862 12.6052 116.797C20.835 114.961 27.6714 113.865 36.2827 113.002C42.8691 112.341 66.1642 112.062 74.0824 112.549C86.0076 113.283 88.4903 113.311 91.8113 112.75C99.6263 111.43 105.096 108.725 109.892 103.809C113.273 100.343 115.507 96.6077 116.837 92.1989C118.298 87.353 118.244 89.141 118.147 48.8204C118.055 10.762 118.054 10.7275 117.412 10.1839C116.826 9.68704 115.767 9.63977 105.192 9.63977C93.8167 9.63977 93.6034 9.65128 93.0212 10.2943Z" fill="#26BEFF"/>
<path fill-rule="evenodd" clip-rule="evenodd" d="M93.2599 10.3593L92.5839 11.0792L92.5777 48.0629C92.573 78.2575 92.4906 85.657 92.1293 88.3711C91.4579 93.4132 89.6472 97.4594 86.6117 100.7L85.2764 102.125L85.088 87.2112C84.9844 79.0088 84.8796 63.1627 84.8548 51.9978C84.805 29.402 84.8507 29.9161 82.8099 29.0634C81.952 28.7049 80.0688 28.6082 73.951 28.6082C65.6659 28.6082 65.0272 28.7067 64.0579 30.1331C63.5433 30.8906 63.5038 33.1068 63.4183 66.0785C63.3486 93.0053 63.2395 101.305 62.9519 101.594C62.6114 101.935 58.1476 102.607 56.1752 102.614L55.3713 102.616L55.1689 77.1974C54.9767 53.023 54.9382 51.7406 54.385 50.9993L53.8029 50.2197L45.1296 50.1323C40.3592 50.0844 36.1439 50.1214 35.7621 50.2147C34.1892 50.5988 34.2126 50.2175 34.0465 77.9851C33.9613 92.23 33.8133 103.963 33.7178 104.059C33.6224 104.154 31.8751 104.538 29.8352 104.912L26.1264 105.591L25.9287 102.16C25.8198 100.273 25.7303 93.0105 25.7296 86.0208L25.7281 73.313L24.5209 72.1055L23.3135 70.8984H15.4167C6.6465 70.8984 6.48138 70.9332 5.63403 72.9609C5.03948 74.3842 5.13681 115.131 5.73726 116.178C5.94436 116.539 6.55104 117.016 7.08526 117.237C7.9491 117.595 8.71623 117.497 14.0162 116.35C20.2627 114.999 21.6424 114.746 26.9719 113.982C41.5138 111.894 60.7621 111.433 79.7603 112.718C86.1713 113.151 87.4086 113.155 90.6438 112.754C104.145 111.077 113.656 103.141 117.242 90.5583L117.926 88.1565L118.01 49.6242L118.094 11.0919L117.412 10.3659L116.73 9.63977H105.333H93.9363L93.2599 10.3593Z" fill="url(#paint0_linear_16_132)"/>
<defs>
<linearGradient id="paint0_linear_16_132" x1="61.6643" y1="9.63977" x2="61.6643" y2="117.421" gradientUnits="userSpaceOnUse">
<stop stop-color="#008CC8"/>
<stop offset="1" stop-color="#4DC6FA"/>
</linearGradient>
</defs>
</svg>
